<svg xmlns="http://www.w3.org/2000/svg" shape-rendering="geometricPrecision" text-rendering="geometricPrecision" image-rendering="optimizeQuality" fill-rule="evenodd" clip-rule="evenodd" viewBox="0 0 512 343.05"><path fill="#3C3A35" fill-rule="nonzero" d="M92.278 161.474l1.903-33.158c.356-6.484 5.728-11.502 12.144-11.496v-.03h92.276c2.971-12.988 9.174-23.306 19.037-32.336 21.405-19.604 45.751-19.382 70.35-19.158l2.408-.002V35.28L114.778 49.734c-12.355 1.717-20.708-3.332-25.21-10.847-2.107-3.514-3.275-7.537-3.535-11.604a27.97 27.97 0 011.802-11.757C91.172 6.85 98.74 0 110.165 0v.023c.251 0 .503.013.757.038L298.988 19.02 487.054.061c.255-.025.507-.038.758-.038V0c11.426 0 18.993 6.85 22.331 15.526a28.001 28.001 0 011.802 11.757c-.261 4.067-1.429 8.09-3.536 11.604-4.502 7.515-12.854 12.564-25.209 10.847L307.581 35.28v30.208c41.533 1.331 81.253 9.631 113.958 29.087 31.151 18.532 55.675 46.898 69.086 88.522 5.326 16.529 8.997 32.852 7.758 48.727-2.017 25.866-18.712 49.175-42.462 59.318-6.909 2.953-14.624 4.929-23.209 5.836-.416.044-.829.064-1.238.064v.031h-46.477l18.201 28.792h53.46c6.596 0 12.106-1.946 15.789-5.533 3.463-3.372 5.501-8.442 5.501-14.968a8.593 8.593 0 0117.186 0c0 11.405-3.977 20.67-10.739 27.252-6.948 6.765-16.629 10.434-27.737 10.434H116.225a8.593 8.593 0 110-17.185h72.921l41.799-74.254-111.156-76.38H104.37c-6.733 0-12.193-5.46-12.193-12.193 0-.53.034-1.052.101-1.564zm272.517 135.599h-43.812c-.775 0-1.533-.072-2.267-.211-12.336-1.347-24.059-4.915-35.281-10.282-11.131-5.323-21.74-12.416-31.95-20.856l-6.339-4.355-36.307 64.496h174.089l-17.658-27.93a8.46 8.46 0 01-.475-.862z"/><path fill="#FF6748" d="M125.919 128.982h83.059c1.388-15.563 6.62-26.205 16.852-35.574 14.934-13.679 32.735-15.789 51.141-15.994l-.001.066v56.636c0 7.651-.129 13.384.739 20.927 1.803 15.632 6.575 28.63 15.025 38.353 10.262 11.808 25.143 18.28 45.666 18.208.32.026.643.039.97.039h143.276v-.036c.854 0 1.721-.091 2.59-.281 3.433 21.358.244 41.451-18.706 58.764-8.89 8.123-20.412 13.24-35.056 14.791H320.983c-22.536-2.21-42.935-12.885-62.057-28.757l-133.407-91.67a64.088 64.088 0 002.694-18.43c0-5.902-.801-11.616-2.294-17.042z"/><path fill="#08BAF0" d="M290.137 77.46c1.716.014 3.432.026 5.147.026 8.048 0 16.037.254 23.93.785 29.044 2.239 58.067 8.863 84.388 20.895 29.862 14.141 55.485 40.044 70.052 73.139a172.062 172.062 0 015.399 14.507c.96 2.98 1.861 5.947 2.682 8.897.318 1.241.624 2.486.911 3.742H339.37c-34.445.507-48.673-19.982-50.207-53.653V77.48l.974-.02z"/><path fill="#50D1FF" d="M333.003 79.669c24.382 3.075 48.448 9.371 70.599 19.497 27.729 13.13 51.801 36.405 66.762 66.16h-52.687c-56.517.829-80.872-31.742-84.674-85.657z"/><path fill="#3C3A35" d="M64.107 81.918c35.405 0 64.106 28.701 64.106 64.106 0 35.405-28.701 64.107-64.106 64.107C28.702 210.131 0 181.429 0 146.024s28.702-64.106 64.107-64.106zm0 37.306c14.801 0 26.8 11.999 26.8 26.8s-11.999 26.8-26.8 26.8c-14.802 0-26.8-11.999-26.8-26.8s11.998-26.8 26.8-26.8z"/></svg>